<?xml version="1.0" encoding="utf-8"?>
<!-- Generator: Adobe Illustrator 26.1.0, SVG Export Plug-In . SVG Version: 6.00 Build 0)  -->
<svg version="1.1" id="Layer_1" xmlns="http://www.w3.org/2000/svg" xmlns:xlink="http://www.w3.org/1999/xlink" x="0px" y="0px"
	 viewBox="0 0 24 24" style="enable-background:new 0 0 24 24;" xml:space="preserve">
<style type="text/css">
	.st0{display:none;}
	.st1{display:inline;fill:#FAFAFF;}
	.st2{display:inline;}
	.st3{fill:#FAFAFF;}
</style>
<g class="st0">
	<polygon class="st1" points="17.7,18.6 12,12.9 6.3,18.6 5.4,18.6 5.4,17.7 11.1,12 5.4,6.3 5.4,5.4 6.3,5.4 12,11.1 17.7,5.4 
		18.6,5.4 18.6,6.3 12.9,12 18.6,17.7 18.6,18.6 	"/>
	<path class="st2" d="M18.2,5.8v0.4l-5.3,5.3L12.4,12l0.5,0.5l5.3,5.3v0.4h-0.4l-5.3-5.3L12,12.4l-0.5,0.5l-5.3,5.3H5.8v-0.4
		l5.3-5.3l0.5-0.5l-0.5-0.5L5.8,6.1V5.8h0.4l5.3,5.3l0.5,0.5l0.5-0.5l5.3-5.3H18.2 M19,5h-1.5L12,10.5L6.5,5H5v1.5l5.5,5.5L5,17.5
		V19h1.5l5.5-5.5l5.5,5.5H19v-1.5L13.5,12L19,6.5V5L19,5z"/>
</g>
<g>
	<polygon class="st3" points="12.9,11.5 12.4,12 12.9,12.5 18.2,17.8 18.2,18.2 17.8,18.2 12.5,12.9 12,12.4 11.5,12.9 6.2,18.2 
		5.8,18.2 5.8,17.8 11.1,12.5 11.6,12 11.1,11.5 5.8,6.2 5.8,5.8 6.2,5.8 11.5,11.1 12,11.6 12.5,11.1 17.8,5.8 18.2,5.8 18.2,6.2 	
		"/>
</g>
</svg>
